<svg width="490" height="106" viewBox="0 0 490 106" fill="none" xmlns="http://www.w3.org/2000/svg">
<path d="M79.928 48.194C79.928 47.726 79.954 47.284 80.006 46.868C80.084 46.452 80.227 46.101 80.435 45.815C80.643 45.503 80.929 45.269 81.293 45.113C81.657 44.931 82.138 44.84 82.736 44.84C83.1 44.84 83.503 44.879 83.945 44.957C84.413 45.035 84.751 45.178 84.959 45.386C84.855 45.828 84.764 46.218 84.686 46.556C84.634 46.894 84.582 47.271 84.53 47.687C84.504 48.077 84.478 48.558 84.452 49.13C84.426 49.676 84.4 50.391 84.374 51.275C84.322 53.043 84.231 54.629 84.101 56.033C83.997 57.411 83.737 58.789 83.321 60.167C83.321 60.271 83.36 60.323 83.438 60.323C83.828 60.037 84.27 59.621 84.764 59.075C85.258 58.529 85.778 57.918 86.324 57.242C86.87 56.54 87.416 55.799 87.962 55.019C88.508 54.239 89.015 53.472 89.483 52.718C90.107 51.626 90.796 50.261 91.55 48.623C92.304 46.985 92.928 45.23 93.422 43.358C93.578 43.358 93.773 43.397 94.007 43.475C94.267 43.527 94.514 43.605 94.748 43.709C95.008 43.787 95.229 43.878 95.411 43.982C95.619 44.086 95.762 44.177 95.84 44.255C95.788 45.373 95.515 46.517 95.021 47.687C94.553 48.857 93.981 49.988 93.305 51.08C92.629 52.172 91.914 53.199 91.16 54.161C90.406 55.123 89.717 55.955 89.093 56.657C87.845 58.113 86.584 59.413 85.31 60.557C84.062 61.701 82.567 62.806 80.825 63.872C80.149 63.612 79.616 63.261 79.226 62.819C78.836 62.403 78.641 61.961 78.641 61.493C78.641 61.181 78.706 60.83 78.836 60.44C78.992 60.024 79.161 59.504 79.343 58.88C79.525 58.23 79.681 57.424 79.811 56.462C79.967 55.5 80.045 54.278 80.045 52.796C80.045 51.938 80.019 51.08 79.967 50.222C79.941 49.338 79.928 48.662 79.928 48.194ZM108.719 46.244C108.979 46.244 109.278 46.296 109.616 46.4C109.98 46.478 110.305 46.595 110.591 46.751C110.877 46.881 111.111 47.024 111.293 47.18C111.501 47.336 111.605 47.479 111.605 47.609C111.085 48.701 110.604 49.806 110.162 50.924C109.72 52.016 109.343 53.069 109.031 54.083C108.719 55.097 108.472 56.046 108.29 56.93C108.134 57.814 108.056 58.581 108.056 59.231C108.056 59.959 108.134 60.57 108.29 61.064C108.446 61.532 108.706 61.87 109.07 62.078C108.758 62.286 108.355 62.455 107.861 62.585C107.367 62.715 106.925 62.78 106.535 62.78C105.131 62.78 104.429 61.818 104.429 59.894C104.429 58.412 104.923 56.384 105.911 53.81C105.391 55.006 104.793 56.137 104.117 57.203C103.441 58.243 102.752 59.166 102.05 59.972C101.348 60.778 100.633 61.441 99.9054 61.961C99.2034 62.455 98.5534 62.754 97.9554 62.858C96.9934 62.806 96.2134 62.351 95.6154 61.493C95.0174 60.609 94.7184 59.491 94.7184 58.139C94.7184 56.683 95.0304 55.149 95.6544 53.537C96.2784 51.925 97.0714 50.43 98.0334 49.052C99.0214 47.674 100.087 46.53 101.231 45.62C102.375 44.684 103.48 44.19 104.546 44.138C104.806 44.216 105.092 44.372 105.404 44.606C105.742 44.84 106.054 45.113 106.34 45.425C106.652 45.737 106.912 46.062 107.12 46.4C107.328 46.712 107.445 46.985 107.471 47.219C106.431 47.375 105.352 47.882 104.234 48.74C103.142 49.598 102.141 50.638 101.231 51.86C100.347 53.056 99.6194 54.343 99.0474 55.721C98.4754 57.099 98.1894 58.386 98.1894 59.582C98.1894 60.076 98.3714 60.388 98.7354 60.518C99.4894 60.362 100.36 59.725 101.348 58.607C102.336 57.463 103.532 55.708 104.936 53.342C105.196 52.874 105.482 52.354 105.794 51.782C106.132 51.21 106.47 50.612 106.808 49.988C107.146 49.364 107.471 48.74 107.783 48.116C108.121 47.466 108.433 46.842 108.719 46.244ZM113.545 59.504C113.545 58.36 113.818 56.761 114.364 54.707C114.91 52.627 115.677 50.209 116.665 47.453C118.277 43.059 119.785 39.406 121.189 36.494C122.619 33.556 124.01 31.268 125.362 29.63C125.674 29.682 126.051 29.812 126.493 30.02C126.961 30.228 127.416 30.462 127.858 30.722C128.3 30.956 128.69 31.203 129.028 31.463C129.392 31.723 129.626 31.931 129.73 32.087C127.702 34.479 125.921 37.053 124.387 39.809C122.853 42.565 121.449 45.724 120.175 49.286C119.083 52.354 118.251 55.123 117.679 57.593C117.107 60.037 116.821 62.078 116.821 63.716C116.821 64.158 116.821 64.431 116.821 64.535C116.821 64.639 116.834 64.743 116.86 64.847C116.496 64.795 116.184 64.704 115.924 64.574C115.664 64.444 115.495 64.288 115.417 64.106C115.365 63.976 115.222 63.781 114.988 63.521C114.754 63.287 114.546 63.105 114.364 62.975C114.13 62.819 113.935 62.416 113.779 61.766C113.623 61.09 113.545 60.336 113.545 59.504ZM136.103 46.244C136.363 46.244 136.662 46.296 137 46.4C137.364 46.478 137.689 46.595 137.975 46.751C138.261 46.881 138.495 47.024 138.677 47.18C138.885 47.336 138.989 47.479 138.989 47.609C138.469 48.701 137.988 49.806 137.546 50.924C137.104 52.016 136.727 53.069 136.415 54.083C136.103 55.097 135.856 56.046 135.674 56.93C135.518 57.814 135.44 58.581 135.44 59.231C135.44 59.959 135.518 60.57 135.674 61.064C135.83 61.532 136.09 61.87 136.454 62.078C136.142 62.286 135.739 62.455 135.245 62.585C134.751 62.715 134.309 62.78 133.919 62.78C132.515 62.78 131.813 61.818 131.813 59.894C131.813 58.412 132.307 56.384 133.295 53.81C132.775 55.006 132.177 56.137 131.501 57.203C130.825 58.243 130.136 59.166 129.434 59.972C128.732 60.778 128.017 61.441 127.289 61.961C126.587 62.455 125.937 62.754 125.339 62.858C124.377 62.806 123.597 62.351 122.999 61.493C122.401 60.609 122.102 59.491 122.102 58.139C122.102 56.683 122.414 55.149 123.038 53.537C123.662 51.925 124.455 50.43 125.417 49.052C126.405 47.674 127.471 46.53 128.615 45.62C129.759 44.684 130.864 44.19 131.93 44.138C132.19 44.216 132.476 44.372 132.788 44.606C133.126 44.84 133.438 45.113 133.724 45.425C134.036 45.737 134.296 46.062 134.504 46.4C134.712 46.712 134.829 46.985 134.855 47.219C133.815 47.375 132.736 47.882 131.618 48.74C130.526 49.598 129.525 50.638 128.615 51.86C127.731 53.056 127.003 54.343 126.431 55.721C125.859 57.099 125.573 58.386 125.573 59.582C125.573 60.076 125.755 60.388 126.119 60.518C126.873 60.362 127.744 59.725 128.732 58.607C129.72 57.463 130.916 55.708 132.32 53.342C132.58 52.874 132.866 52.354 133.178 51.782C133.516 51.21 133.854 50.612 134.192 49.988C134.53 49.364 134.855 48.74 135.167 48.116C135.505 47.466 135.817 46.842 136.103 46.244ZM147.286 43.085C147.962 43.293 148.599 43.761 149.197 44.489C149.795 45.191 150.237 45.971 150.523 46.829C150.237 47.531 149.795 48.376 149.197 49.364C148.599 50.352 148.001 51.366 147.403 52.406C146.805 53.42 146.259 54.395 145.765 55.331C145.297 56.241 145.024 56.995 144.946 57.593C145.362 57.151 145.817 56.644 146.311 56.072C146.831 55.474 147.325 54.889 147.793 54.317C148.287 53.719 148.742 53.186 149.158 52.718C149.574 52.224 149.899 51.86 150.133 51.626C150.627 51.106 151.212 50.508 151.888 49.832C152.564 49.13 153.266 48.48 153.994 47.882C154.748 47.258 155.502 46.738 156.256 46.322C157.01 45.88 157.699 45.659 158.323 45.659C158.999 45.659 159.558 45.893 160 46.361C160.468 46.803 160.832 47.271 161.092 47.765C161.092 47.817 160.988 47.895 160.78 47.999C160.598 48.077 160.325 48.324 159.961 48.74C159.597 49.208 159.181 49.858 158.713 50.69C158.271 51.496 157.829 52.38 157.387 53.342C156.971 54.278 156.62 55.24 156.334 56.228C156.048 57.216 155.905 58.113 155.905 58.919C155.905 59.569 155.983 59.985 156.139 60.167C156.321 60.349 156.568 60.44 156.88 60.44C157.166 60.44 157.465 60.375 157.777 60.245C158.089 60.115 158.336 60.05 158.518 60.05C158.622 60.102 158.7 60.219 158.752 60.401C158.83 60.557 158.869 60.7 158.869 60.83C158.661 61.012 158.414 61.194 158.128 61.376C157.842 61.558 157.543 61.727 157.231 61.883C156.919 62.039 156.607 62.169 156.295 62.273C156.009 62.377 155.749 62.429 155.515 62.429C154.761 62.429 154.137 62.312 153.643 62.078C153.175 61.87 152.798 61.584 152.512 61.22C152.252 60.856 152.07 60.427 151.966 59.933C151.862 59.413 151.81 58.867 151.81 58.295C151.81 57.983 151.836 57.632 151.888 57.242C151.94 56.852 152.044 56.397 152.2 55.877C152.356 55.331 152.577 54.694 152.863 53.966C153.149 53.212 153.513 52.315 153.955 51.275C153.903 51.275 153.552 51.457 152.902 51.821C152.252 52.185 151.55 52.744 150.796 53.498C149.574 54.668 148.469 55.825 147.481 56.969C146.519 58.113 145.531 59.387 144.517 60.791C143.945 61.597 143.438 62.273 142.996 62.819C142.58 63.391 142.216 63.768 141.904 63.95C141.358 63.638 140.955 63.196 140.695 62.624C140.435 62.078 140.24 61.506 140.11 60.908C140.11 60.414 140.175 59.79 140.305 59.036C140.461 58.282 140.656 57.45 140.89 56.54C141.15 55.604 141.462 54.629 141.826 53.615C142.19 52.601 142.593 51.587 143.035 50.573C144.023 48.285 144.92 46.491 145.726 45.191C146.558 43.891 147.078 43.189 147.286 43.085ZM162.263 55.136C162.263 53.654 162.562 52.224 163.16 50.846C163.784 49.442 164.59 48.207 165.578 47.141C166.592 46.049 167.736 45.178 169.01 44.528C170.31 43.852 171.649 43.514 173.027 43.514C174.379 43.514 175.419 43.852 176.147 44.528C176.875 45.204 177.239 46.166 177.239 47.414C177.239 48.012 177.148 48.597 176.966 49.169C176.81 49.715 176.589 50.209 176.303 50.651C176.043 51.093 175.731 51.457 175.367 51.743C175.003 52.003 174.639 52.133 174.275 52.133C173.963 52.133 173.638 52.042 173.3 51.86C172.988 51.652 172.728 51.392 172.52 51.08C174.262 49.494 175.133 48.051 175.133 46.751C175.133 45.997 174.834 45.62 174.236 45.62C173.716 45.62 173.066 45.867 172.286 46.361C171.506 46.855 170.752 47.505 170.024 48.311C168.906 49.559 168.048 50.95 167.45 52.484C166.878 53.992 166.592 55.578 166.592 57.242C166.592 59.348 167.06 60.609 167.996 61.025C168.386 60.973 168.841 60.856 169.361 60.674C169.881 60.492 170.44 60.258 171.038 59.972C171.636 59.66 172.247 59.309 172.871 58.919C173.521 58.529 174.145 58.113 174.743 57.671C174.847 57.749 174.938 57.866 175.016 58.022C175.094 58.178 175.133 58.321 175.133 58.451C174.691 58.997 174.184 59.53 173.612 60.05C173.04 60.57 172.442 61.051 171.818 61.493C171.194 61.909 170.583 62.26 169.985 62.546C169.413 62.858 168.906 63.053 168.464 63.131C167.606 63.053 166.8 62.78 166.046 62.312C165.292 61.87 164.629 61.285 164.057 60.557C163.511 59.829 163.069 58.997 162.731 58.061C162.419 57.125 162.263 56.15 162.263 55.136ZM178.367 61.337C178.367 60.427 178.458 59.361 178.64 58.139C178.822 56.891 179.082 55.565 179.42 54.161C179.784 52.757 180.2 51.288 180.668 49.754C181.162 48.22 181.708 46.686 182.306 45.152C182.826 43.774 183.424 42.383 184.1 40.979C184.802 39.575 185.556 38.197 186.362 36.845C187.168 35.493 188 34.206 188.858 32.984C189.742 31.762 190.626 30.644 191.51 29.63C191.926 29.63 192.368 29.682 192.836 29.786C193.33 29.89 193.798 30.033 194.24 30.215C194.708 30.371 195.124 30.566 195.488 30.8C195.878 31.034 196.19 31.268 196.424 31.502C194.474 33.504 192.719 35.532 191.159 37.586C189.599 39.614 188.364 41.525 187.454 43.319C186.96 44.307 186.505 45.23 186.089 46.088C185.699 46.946 185.335 47.804 184.997 48.662C184.659 49.494 184.347 50.339 184.061 51.197C183.801 52.029 183.554 52.913 183.32 53.849C188.312 47.479 192.017 44.294 194.435 44.294C195.111 44.294 195.839 44.515 196.619 44.957C197.399 45.399 198.088 45.997 198.686 46.751C197.88 47.635 197.048 48.701 196.19 49.949C195.332 51.197 194.539 52.458 193.811 53.732C193.109 54.98 192.524 56.15 192.056 57.242C191.614 58.308 191.393 59.101 191.393 59.621C191.393 59.881 191.432 60.063 191.51 60.167C191.588 60.245 191.757 60.284 192.017 60.284C192.407 60.284 192.719 60.232 192.953 60.128C193.187 60.024 193.33 59.972 193.382 59.972C193.512 60.18 193.59 60.323 193.616 60.401C193.642 60.479 193.655 60.544 193.655 60.596C193.655 60.7 193.499 60.856 193.187 61.064C192.875 61.246 192.498 61.441 192.056 61.649C191.64 61.831 191.224 62 190.808 62.156C190.392 62.312 190.08 62.39 189.872 62.39C189.612 62.39 189.352 62.312 189.092 62.156C188.832 62.026 188.598 61.844 188.39 61.61C188.208 61.376 188.052 61.116 187.922 60.83C187.818 60.544 187.766 60.245 187.766 59.933C187.766 59.543 187.87 58.971 188.078 58.217C188.312 57.437 188.624 56.54 189.014 55.526C189.404 54.486 189.872 53.355 190.418 52.133C190.964 50.911 191.549 49.663 192.173 48.389C192.173 48.285 192.121 48.233 192.017 48.233C191.939 48.233 191.731 48.337 191.393 48.545C191.081 48.753 190.782 48.961 190.496 49.169C189.56 49.871 188.611 50.742 187.649 51.782C186.713 52.796 185.79 53.914 184.88 55.136C183.996 56.358 183.151 57.658 182.345 59.036C181.565 60.388 180.889 61.753 180.317 63.131C180.239 63.313 180.122 63.482 179.966 63.638C179.81 63.794 179.68 63.872 179.576 63.872C179.498 63.872 179.381 63.781 179.225 63.599C179.095 63.417 178.965 63.183 178.835 62.897C178.731 62.637 178.627 62.364 178.523 62.078C178.419 61.792 178.367 61.545 178.367 61.337ZM212.516 45.854C212.412 47.466 212.126 48.857 211.658 50.027C211.19 51.171 210.514 52.185 209.63 53.069C208.772 53.927 207.719 54.707 206.471 55.409C205.223 56.111 203.767 56.787 202.103 57.437C202.103 57.593 202.09 57.762 202.064 57.944C202.064 58.1 202.064 58.269 202.064 58.451C202.064 58.789 202.09 59.14 202.142 59.504C202.194 59.868 202.285 60.206 202.415 60.518C202.545 60.83 202.727 61.09 202.961 61.298C203.195 61.48 203.494 61.571 203.858 61.571C204.56 61.571 205.249 61.415 205.925 61.103C206.601 60.791 207.238 60.414 207.836 59.972C208.46 59.504 209.032 59.01 209.552 58.49C210.098 57.944 210.579 57.45 210.995 57.008C211.255 57.242 211.476 57.463 211.658 57.671C210.488 59.231 209.201 60.531 207.797 61.571C206.419 62.585 205.106 63.235 203.858 63.521C202.064 63.313 200.66 62.663 199.646 61.571C198.658 60.453 198.164 59.114 198.164 57.554C198.164 56.488 198.307 55.409 198.593 54.317C198.905 53.199 199.321 52.133 199.841 51.119C200.387 50.079 201.011 49.104 201.713 48.194C202.441 47.284 203.208 46.491 204.014 45.815C204.846 45.139 205.691 44.606 206.549 44.216C207.433 43.826 208.304 43.631 209.162 43.631C210.358 43.787 211.476 44.528 212.516 45.854ZM209.825 47.141C209.123 47.245 208.395 47.531 207.641 47.999C206.887 48.467 206.172 49.091 205.496 49.871C204.846 50.651 204.248 51.561 203.702 52.601C203.156 53.641 202.727 54.759 202.415 55.955C204.495 54.915 206.224 53.641 207.602 52.133C208.98 50.599 209.721 48.935 209.825 47.141ZM215.413 63.482C214.997 63.43 214.555 63.248 214.087 62.936C213.645 62.65 213.359 62.325 213.229 61.961C213.229 61.649 213.268 61.246 213.346 60.752C213.45 60.258 213.567 59.764 213.697 59.27C213.827 58.75 213.957 58.269 214.087 57.827C214.217 57.359 214.308 57.008 214.36 56.774C214.672 56.774 215.062 56.852 215.53 57.008C216.024 57.164 216.518 57.385 217.012 57.671C217.532 57.931 218.013 58.243 218.455 58.607C218.923 58.945 219.274 59.296 219.508 59.66C219.274 60.18 218.975 60.674 218.611 61.142C218.247 61.61 217.857 62.013 217.441 62.351C217.051 62.715 216.674 62.988 216.31 63.17C215.946 63.378 215.647 63.482 215.413 63.482ZM223.767 59.387C223.767 59.153 223.78 58.867 223.806 58.529C223.858 58.165 223.936 57.697 224.04 57.125C224.144 56.527 224.274 55.812 224.43 54.98C224.612 54.148 224.833 53.147 225.093 51.977C225.145 51.717 225.262 51.301 225.444 50.729C225.626 50.157 225.86 49.559 226.146 48.935C226.458 48.285 226.822 47.661 227.238 47.063C227.68 46.465 228.2 46.023 228.798 45.737C229.24 45.841 229.825 46.114 230.553 46.556C231.281 46.972 231.905 47.557 232.425 48.311C231.827 48.987 231.32 49.663 230.904 50.339C230.514 51.015 230.15 51.717 229.812 52.445C229.5 53.173 229.201 53.927 228.915 54.707C228.655 55.487 228.356 56.306 228.018 57.164C227.732 57.892 227.472 58.646 227.238 59.426C227.004 60.18 226.874 60.843 226.848 61.415C226.848 61.883 226.835 62.208 226.809 62.39C226.809 62.598 226.744 62.702 226.614 62.702C226.51 62.702 226.302 62.637 225.99 62.507C225.678 62.377 225.353 62.182 225.015 61.922C224.703 61.636 224.417 61.285 224.157 60.869C223.897 60.453 223.767 59.959 223.767 59.387ZM231.216 42.461C231.216 42.305 231.255 42.071 231.333 41.759C231.203 41.629 231.086 41.434 230.982 41.174C230.904 40.914 230.865 40.68 230.865 40.472C230.865 40.238 230.891 39.926 230.943 39.536C231.021 39.12 231.112 38.678 231.216 38.21C231.32 37.742 231.45 37.261 231.606 36.767C231.762 36.247 231.918 35.779 232.074 35.363C232.386 35.363 232.763 35.454 233.205 35.636C233.673 35.792 234.141 36.013 234.609 36.299C235.077 36.559 235.506 36.858 235.896 37.196C236.286 37.508 236.585 37.807 236.793 38.093C236.507 38.379 236.13 38.782 235.662 39.302C235.194 39.796 234.739 40.329 234.297 40.901C233.855 41.447 233.452 41.967 233.088 42.461C232.724 42.955 232.49 43.306 232.386 43.514C232.074 43.462 231.801 43.332 231.567 43.124C231.333 42.89 231.216 42.669 231.216 42.461ZM239.263 43.085C239.939 43.293 240.576 43.761 241.174 44.489C241.772 45.191 242.214 45.971 242.5 46.829C242.214 47.531 241.772 48.376 241.174 49.364C240.576 50.352 239.978 51.366 239.38 52.406C238.782 53.42 238.236 54.395 237.742 55.331C237.274 56.241 237.001 56.995 236.923 57.593C237.339 57.151 237.794 56.644 238.288 56.072C238.808 55.474 239.302 54.889 239.77 54.317C240.264 53.719 240.719 53.186 241.135 52.718C241.551 52.224 241.876 51.86 242.11 51.626C242.604 51.106 243.189 50.508 243.865 49.832C244.541 49.13 245.243 48.48 245.971 47.882C246.725 47.258 247.479 46.738 248.233 46.322C248.987 45.88 249.676 45.659 250.3 45.659C250.976 45.659 251.535 45.893 251.977 46.361C252.445 46.803 252.809 47.271 253.069 47.765C253.069 47.817 252.965 47.895 252.757 47.999C252.575 48.077 252.302 48.324 251.938 48.74C251.574 49.208 251.158 49.858 250.69 50.69C250.248 51.496 249.806 52.38 249.364 53.342C248.948 54.278 248.597 55.24 248.311 56.228C248.025 57.216 247.882 58.113 247.882 58.919C247.882 59.569 247.96 59.985 248.116 60.167C248.298 60.349 248.545 60.44 248.857 60.44C249.143 60.44 249.442 60.375 249.754 60.245C250.066 60.115 250.313 60.05 250.495 60.05C250.599 60.102 250.677 60.219 250.729 60.401C250.807 60.557 250.846 60.7 250.846 60.83C250.638 61.012 250.391 61.194 250.105 61.376C249.819 61.558 249.52 61.727 249.208 61.883C248.896 62.039 248.584 62.169 248.272 62.273C247.986 62.377 247.726 62.429 247.492 62.429C246.738 62.429 246.114 62.312 245.62 62.078C245.152 61.87 244.775 61.584 244.489 61.22C244.229 60.856 244.047 60.427 243.943 59.933C243.839 59.413 243.787 58.867 243.787 58.295C243.787 57.983 243.813 57.632 243.865 57.242C243.917 56.852 244.021 56.397 244.177 55.877C244.333 55.331 244.554 54.694 244.84 53.966C245.126 53.212 245.49 52.315 245.932 51.275C245.88 51.275 245.529 51.457 244.879 51.821C244.229 52.185 243.527 52.744 242.773 53.498C241.551 54.668 240.446 55.825 239.458 56.969C238.496 58.113 237.508 59.387 236.494 60.791C235.922 61.597 235.415 62.273 234.973 62.819C234.557 63.391 234.193 63.768 233.881 63.95C233.335 63.638 232.932 63.196 232.672 62.624C232.412 62.078 232.217 61.506 232.087 60.908C232.087 60.414 232.152 59.79 232.282 59.036C232.438 58.282 232.633 57.45 232.867 56.54C233.127 55.604 233.439 54.629 233.803 53.615C234.167 52.601 234.57 51.587 235.012 50.573C236 48.285 236.897 46.491 237.703 45.191C238.535 43.891 239.055 43.189 239.263 43.085ZM256.152 73.271C255.502 73.011 255.112 72.517 254.982 71.789C254.878 71.087 254.436 70.515 253.656 70.073C253.864 68.747 254.098 67.408 254.358 66.056C254.618 64.704 254.943 63.17 255.333 61.454C255.749 59.712 256.256 57.697 256.854 55.409C257.478 53.095 258.258 50.3 259.194 47.024C258.336 47.024 257.66 47.037 257.166 47.063C256.672 47.089 256.191 47.141 255.723 47.219C255.619 47.115 255.528 46.972 255.45 46.79C255.398 46.608 255.372 46.439 255.372 46.283C255.632 46.179 256.165 46.049 256.971 45.893C257.777 45.711 258.661 45.555 259.623 45.425C260.247 43.449 260.962 41.681 261.768 40.121C262.574 38.535 263.445 37.183 264.381 36.065C265.317 34.947 266.305 34.089 267.345 33.491C268.385 32.893 269.438 32.594 270.504 32.594C270.816 32.594 271.115 32.62 271.401 32.672C271.687 32.698 271.908 32.711 272.064 32.711C272.298 32.529 272.61 32.373 273 32.243C273.39 32.087 273.728 32.009 274.014 32.009C274.326 32.009 274.729 32.178 275.223 32.516C275.015 32.88 274.794 33.374 274.56 33.998C274.326 34.622 274.131 35.233 273.975 35.831C273.325 37.755 272.636 39.003 271.908 39.575C271.622 39.575 271.466 39.198 271.44 38.444C271.414 37.898 271.336 37.365 271.206 36.845C271.102 36.611 271.024 36.403 270.972 36.221C270.946 36.039 270.933 35.805 270.933 35.519C270.933 35.363 270.946 35.181 270.972 34.973C270.998 34.739 271.05 34.362 271.128 33.842C270.686 33.842 270.192 34.115 269.646 34.661C269.126 35.207 268.567 35.987 267.969 37.001C267.397 37.989 266.812 39.172 266.214 40.55C265.616 41.928 265.044 43.449 264.498 45.113L267.774 44.996C267.904 45.126 268.008 45.425 268.086 45.893C268.19 46.335 268.255 46.803 268.281 47.297L263.991 47.063C263.003 50.001 262.08 52.809 261.222 55.487C260.364 58.165 259.597 60.635 258.921 62.897C258.245 65.159 257.66 67.174 257.166 68.942C256.698 70.736 256.36 72.179 256.152 73.271ZM271.786 63.365C270.304 63.209 269.121 62.559 268.237 61.415C267.353 60.271 266.911 58.815 266.911 57.047C266.911 56.007 267.067 54.928 267.379 53.81C267.691 52.692 268.133 51.613 268.705 50.573C269.277 49.507 269.953 48.506 270.733 47.57C271.513 46.634 272.358 45.828 273.268 45.152C274.698 44.086 276.037 43.553 277.285 43.553C278.117 43.995 278.936 44.918 279.742 46.322C279.872 46.322 279.989 46.322 280.093 46.322C280.197 46.296 280.314 46.283 280.444 46.283C281.822 46.283 282.511 47.505 282.511 49.949C282.511 51.587 282.238 53.147 281.692 54.629C281.172 56.085 280.431 57.411 279.469 58.607C278.533 59.803 277.402 60.817 276.076 61.649C274.776 62.455 273.346 63.027 271.786 63.365ZM273.775 51.08C273.333 51.678 272.917 52.328 272.527 53.03C272.137 53.732 271.799 54.447 271.513 55.175C271.227 55.877 271.006 56.566 270.85 57.242C270.694 57.892 270.616 58.477 270.616 58.997C270.616 59.621 270.72 60.219 270.928 60.791C271.136 61.363 271.37 61.688 271.63 61.766C272.8 61.506 273.866 61.025 274.828 60.323C275.816 59.595 276.661 58.698 277.363 57.632C278.091 56.566 278.65 55.357 279.04 54.005C279.456 52.653 279.664 51.21 279.664 49.676C279.664 49 279.625 48.467 279.547 48.077C279.469 47.687 279.339 47.349 279.157 47.063C278.013 47.401 276.986 47.947 276.076 48.701C275.192 49.455 274.425 50.248 273.775 51.08Z" fill="white"/>
<path d="M34.1559 21.5194C38.0585 13.9051 48.9415 13.9051 52.8441 21.5194L70.8813 56.7107C74.4625 63.6978 69.3885 72 61.5372 72H25.4628C17.6115 72 12.5375 63.6978 16.1187 56.7107L34.1559 21.5194Z" fill="#C74800" stroke="white" stroke-width="3"/>
<path d="M42.284 54.44L41.864 34.28H45.476L45.056 54.44H42.284ZM41.948 61.958C41.556 61.51 41.36 60.95 41.36 60.278C41.36 59.606 41.556 59.06 41.948 58.64C42.34 58.192 42.9 57.968 43.628 57.968C44.384 57.968 44.958 58.192 45.35 58.64C45.77 59.06 45.98 59.606 45.98 60.278C45.98 60.95 45.77 61.51 45.35 61.958C44.958 62.378 44.384 62.588 43.628 62.588C42.9 62.588 42.34 62.378 41.948 61.958Z" fill="white"/>
</svg>
